Coordinates
version=1
nRows=10
nColumns=34
inDegrees=yes

Units are S.I. units (second, meters, Newtons, ...)
Angles are in degrees.

endheader
time	pelvis_tilt	pelvis_list	pelvis_rotation	pelvis_tx	pelvis_ty	pelvis_tz	hip_flexion_r	hip_adduction_r	hip_rotation_r	knee_angle_r	ankle_angle_r	subtalar_angle_r	mtp_angle_r	hip_flexion_l	hip_adduction_l	hip_rotation_l	knee_angle_l	socket_flexion	socket_adduction	socket_rotation	socket_tx	socket_ty	socket_tz	pros_ankle_rx	pros_ankle_ry	pros_ankle_rz	pros_ankle_tx	pros_ankle_ty	pros_ankle_tz	foot_flex	lumbar_extension	lumbar_bending	lumbar_rotation
      0.90000000	      0.01804944	     -5.78116809	      2.69632008	      0.41506027	      1.04378881	      0.38872964	     12.02167872	      9.42306412	     -2.00776119	    -18.98756544	      8.64716384	      2.97929988	      8.21343056	     17.38702513	    -13.54490495	     -4.58896173	    -70.03144050	      0.00000000	      0.00000000	      0.00000000	      0.00000000	      0.00000000	      0.00000000	      0.00000000	      0.00000000	      0.00000000	      0.00000000	      0.00000000	      0.00000000	      0.73701906	     -8.15419562	      1.72721494	    -20.66132129
      0.90416667	     -0.04384527	     -5.59075790	      2.65385606	      0.42020679	      1.04495034	      0.38841699	     11.57054454	      9.20018593	     -2.00032394	    -18.64789722	      8.69984744	      3.09227569	      8.23445809	     17.97603442	    -13.17085650	     -4.48643382	    -69.63790728	      0.00000000	      0.00000000	      0.00000000	      0.00000000	      0.00000000	      0.00000000	      0.00000000	      0.00000000	      0.00000000	      0.00000000	      0.00000000	      0.00000000	      0.72363585	     -8.16323236	      1.55409704	    -20.59237521
      0.90833333	     -0.11168159	     -5.37291674	      2.64675488	      0.42541532	      1.04611356	      0.38794751	     11.08570848	      8.92875802	     -2.01411304	    -18.24058409	      8.74119710	      3.25479043	      8.26104597	     18.55194231	    -12.73313227	     -4.34348060	    -69.17520370	      0.00000000	      0.00000000	      0.00000000	      0.00000000	      0.00000000	      0.00000000	      0.00000000	      0.00000000	      0.00000000	      0.00000000	      0.00000000	      0.00000000	      0.67346921	     -8.12208255	      1.30777088	    -20.51975569
      0.91250000	     -0.13138425	     -5.13329698	      2.68563261	      0.43070238	      1.04735085	      0.38751096	     10.56228463	      8.62761304	     -2.14168492	    -17.86326752	      8.71279456	      3.53454007	      8.31757886	     19.04645062	    -12.26755831	     -4.17443791	    -68.63472094	      0.00000000	      0.00000000	      0.00000000	      0.00000000	      0.00000000	      0.00000000	      0.00000000	      0.00000000	      0.00000000	      0.00000000	      0.00000000	      0.00000000	      0.59575240	     -8.00131352	      0.96625078	    -20.47403748
      0.91666667	     -0.16275594	     -4.90438793	      2.69805309	      0.43597595	      1.04853737	      0.38704281	     10.06376283	      8.31953244	     -2.33559368	    -17.50444955	      8.71679189	      3.91480981	      8.42163707	     19.52578662	    -11.81804232	     -4.04867233	    -68.04382830	      0.00000000	      0.00000000	      0.00000000	      0.00000000	      0.00000000	      0.00000000	      0.00000000	      0.00000000	      0.00000000	      0.00000000	      0.00000000	      0.00000000	      0.54869199	     -7.96533098	      0.68936942	    -20.46930472
      0.92083333	     -0.21553631	     -4.71847212	      2.66541322	      0.44106339	      1.04960345	      0.38660712	      9.61598872	      8.08172283	     -2.38962032	    -17.18168998	      8.77984632	      4.16845252	      8.49141515	     20.03857469	    -11.42009774	     -3.93893519	    -67.45695317	      0.00000000	      0.00000000	      0.00000000	      0.00000000	      0.00000000	      0.00000000	      0.00000000	      0.00000000	      0.00000000	      0.00000000	      0.00000000	      0.00000000	      0.52445279	     -7.99030005	      0.53928780	    -20.43536679
      0.92500000	     -0.22350254	     -4.49037420	      2.68342487	      0.44639890	      1.05081000	      0.38617275	      9.07834429	      7.77902390	     -2.59491265	    -16.79795216	      8.76949221	      4.60736192	      8.62053017	     20.43337015	    -10.97383672	     -3.81555463	    -66.73898084	      0.00000000	      0.00000000	      0.00000000	      0.00000000	      0.00000000	      0.00000000	      0.00000000	      0.00000000	      0.00000000	      0.00000000	      0.00000000	      0.00000000	      0.46290258	     -7.90457655	      0.21849305	    -20.40749288
      0.92916667	      0.08731217	     -4.16380027	      2.82108434	      0.45179647	      1.05242835	      0.38536036	      8.34329984	      7.21829138	     -3.60693022	    -16.70868335	      9.14269798	      6.43023990	      9.75669810	     20.43883151	    -10.38456143	     -3.65281538	    -65.91811596	      0.00000000	      0.00000000	      0.00000000	      0.00000000	      0.00000000	      0.00000000	      0.00000000	      0.00000000	      0.00000000	      0.00000000	      0.00000000	      0.00000000	      0.42815332	     -8.32303318	     -0.07594783	    -20.59702205
      0.93333333	     -0.02189724	     -4.00111370	      2.76533036	      0.45685156	      1.05333108	      0.38504175	      7.94716058	      7.02656704	     -3.57132835	    -16.35646929	      9.06815590	      6.55912278	      9.83204291	     20.94772674	    -10.02478125	     -3.55572732	    -65.17759839	      0.00000000	      0.00000000	      0.00000000	      0.00000000	      0.00000000	      0.00000000	      0.00000000	      0.00000000	      0.00000000	      0.00000000	      0.00000000	      0.00000000	      0.39488136	     -8.23204004	     -0.29188646	    -20.51591655
      0.93750000	     -0.13522198	     -3.86875979	      2.66142626	      0.46196188	      1.05419539	      0.38475441	      7.58275449	      6.85383348	     -3.58833495	    -16.05423755	      9.07819205	      6.65816310	      9.87508339	     21.42414140	     -9.72681479	     -3.52640355	    -64.39405156	      0.00000000	      0.00000000	      0.00000000	      0.00000000	      0.00000000	      0.00000000	      0.00000000	      0.00000000	      0.00000000	      0.00000000	      0.00000000	      0.00000000	      0.40055715	     -8.24017639	     -0.35920473	    -20.45663850
